# xmcd
#
# Track frame offsets:
#	150
#	2755
#	22977
#	40378
#	61360
#	73501
#	88314
#	109933
#	118349
#	143804
#	153756
#	187596
#	203004
#	221845
#	246955
#
# Disc length: 3503 seconds
#
# Revision: 0
# Processed by: cddbd v1.5.2PL0 Copyright (c) Steve Scherf et al.
# Submitted via: dBpowerAMP V4.0
#
DISCID=d10dad0f
DTITLE=Blueshot - Crack the seal
DYEAR=2006
DGENRE=Blues
TTITLE0=Land of the tall (intro)
TTITLE1=It's so easy
TTITLE2=Train gone blues
TTITLE3=Hey baby (naked love)
TTITLE4=Crossroads (acustic)
TTITLE5=Crossroads
TTITLE6=Break down
TTITLE7=Indian blues
TTITLE8=Save me
TTITLE9=Home
TTITLE10=Redhouse blues
TTITLE11=Over the hill
TTITLE12=Land of the tall
TTITLE13=Evil spell
TTITLE14=Nasty sticks
EXTD=
EXTT0=
EXTT1=
EXTT2=
EXTT3=
EXTT4=
EXTT5=
EXTT6=
EXTT7=
EXTT8=
EXTT9=
EXTT10=
EXTT11=
EXTT12=
EXTT13=
EXTT14=
PLAYORDER=
